<?xml version="1.0" encoding="utf-8"?>
<!-- Generator: Adobe Illustrator 22.1.0, SVG Export Plug-In . SVG Version: 6.00 Build 0)  -->
<svg version="1.1" id="Layer_1" xmlns="http://www.w3.org/2000/svg" xmlns:xlink="http://www.w3.org/1999/xlink" x="0px" y="0px"
	 viewBox="0 0 296.5 76.1" style="enable-background:new 0 0 296.5 76.1;" xml:space="preserve">
<style type="text/css">
	.st0{fill:#F26B57;}
	.st1{fill:#F15751;}
	.st2{fill:#A64D32;}
	.st3{fill:#F8991D;}
	.st4{fill:#FAA61A;}
	.st5{fill:#FCB145;}
	.st6{fill:#FABE67;}
	.st7{fill:#F6871F;}
</style>
<g>
	<path d="M89.7,41.1v6.7c-1.1-1.4-2.2-2.4-3.1-2.9c-0.9-0.5-1.9-0.8-3.2-0.8c-1.9,0-3.5,0.7-4.7,2c-1.3,1.3-1.9,3-1.9,5
		c0,2,0.6,3.7,1.8,5c1.2,1.3,2.8,2,4.7,2c1.2,0,2.3-0.3,3.2-0.8c0.9-0.5,1.9-1.5,3.2-3v6.7c-2,1.1-4.1,1.6-6.1,1.6
		c-3.4,0-6.2-1.1-8.5-3.3c-2.3-2.2-3.4-4.9-3.4-8.2c0-3.3,1.1-6,3.4-8.2c2.3-2.2,5.1-3.4,8.5-3.4C85.7,39.6,87.8,40.1,89.7,41.1z"/>
	<path d="M110.6,40.2h5.1V62h-5.1v-2.3c-2.1,1.9-4.3,2.9-6.7,2.9c-3,0-5.5-1.1-7.5-3.3c-2-2.2-2.9-5-2.9-8.3c0-3.3,1-6,2.9-8.2
		c2-2.2,4.4-3.3,7.3-3.3c2.5,0,4.8,1,6.8,3.1V40.2z M98.7,51c0,2.1,0.6,3.8,1.7,5.1c1.1,1.3,2.6,2,4.3,2c1.9,0,3.4-0.6,4.5-1.9
		c1.1-1.3,1.7-3,1.7-5.1s-0.6-3.7-1.7-5.1c-1.1-1.3-2.6-1.9-4.5-1.9c-1.7,0-3.2,0.7-4.3,2C99.3,47.4,98.7,49.1,98.7,51z"/>
	<path d="M122.1,40.2h5v1.9c0.9-1,1.7-1.6,2.5-2c0.7-0.4,1.6-0.6,2.6-0.6c1.3,0,2.7,0.4,4.2,1.3l-2.3,4.6c-1-0.7-1.9-1-2.8-1
		c-2.7,0-4.1,2.1-4.1,6.2V62h-5V40.2z"/>
	<path d="M139.9,40.2h5v1.9c0.9-1,1.7-1.6,2.5-2c0.7-0.4,1.6-0.6,2.6-0.6c1.3,0,2.7,0.4,4.2,1.3l-2.3,4.6c-1-0.7-1.9-1-2.8-1
		c-2.7,0-4.1,2.1-4.1,6.2V62h-5V40.2z"/>
	<path d="M176.6,52.3H161c0.1,1.8,0.7,3.2,1.7,4.3c1,1,2.4,1.6,4,1.6c1.3,0,2.3-0.3,3.1-0.9c0.8-0.6,1.7-1.7,2.8-3.3l4.3,2.4
		c-0.7,1.1-1.4,2.1-2.1,2.9c-0.7,0.8-1.5,1.5-2.4,2c-0.8,0.5-1.7,0.9-2.7,1.1c-1,0.2-2,0.4-3.2,0.4c-3.3,0-5.9-1-7.8-3.1
		c-2-2.1-3-4.9-3-8.4c0-3.4,1-6.2,2.9-8.4c1.9-2.1,4.5-3.2,7.7-3.2c3.2,0,5.7,1,7.6,3.1c1.9,2,2.8,4.8,2.8,8.4L176.6,52.3z
		 M171.5,48.2c-0.7-2.7-2.4-4-5.1-4c-0.6,0-1.2,0.1-1.7,0.3c-0.5,0.2-1,0.5-1.5,0.8c-0.4,0.4-0.8,0.8-1.1,1.3
		c-0.3,0.5-0.6,1.1-0.7,1.7H171.5z"/>
	<path d="M202,52.3h-15.6c0.1,1.8,0.7,3.2,1.7,4.3c1,1,2.4,1.6,4,1.6c1.3,0,2.3-0.3,3.1-0.9c0.8-0.6,1.7-1.7,2.8-3.3l4.3,2.4
		c-0.7,1.1-1.4,2.1-2.1,2.9c-0.7,0.8-1.5,1.5-2.4,2c-0.8,0.5-1.7,0.9-2.7,1.1c-1,0.2-2,0.4-3.2,0.4c-3.3,0-5.9-1-7.8-3.1
		c-2-2.1-3-4.9-3-8.4c0-3.4,1-6.2,2.9-8.4c1.9-2.1,4.5-3.2,7.7-3.2c3.2,0,5.7,1,7.6,3.1c1.9,2,2.8,4.8,2.8,8.4L202,52.3z
		 M196.8,48.2c-0.7-2.7-2.4-4-5.1-4c-0.6,0-1.2,0.1-1.7,0.3c-0.5,0.2-1,0.5-1.5,0.8c-0.4,0.4-0.8,0.8-1.1,1.3
		c-0.3,0.5-0.6,1.1-0.7,1.7H196.8z"/>
	<path d="M207.5,40.2h5v1.9c0.9-1,1.7-1.6,2.5-2c0.7-0.4,1.6-0.6,2.6-0.6c1.3,0,2.7,0.4,4.2,1.3l-2.3,4.6c-1-0.7-1.9-1-2.8-1
		c-2.7,0-4.1,2.1-4.1,6.2V62h-5V40.2z"/>
	<path d="M237.3,43.9l-4.2,2.2c-0.7-1.3-1.5-2-2.4-2c-0.5,0-0.9,0.2-1.2,0.5c-0.3,0.3-0.5,0.7-0.5,1.2c0,0.8,1,1.7,2.9,2.5
		c2.7,1.2,4.5,2.2,5.4,3.2s1.4,2.3,1.4,3.9c0,2.1-0.8,3.9-2.3,5.3c-1.5,1.3-3.3,2-5.5,2c-3.7,0-6.2-1.8-7.8-5.4l4.3-2
		c0.6,1,1.1,1.7,1.4,2c0.6,0.6,1.3,0.9,2.2,0.9c1.7,0,2.6-0.8,2.6-2.3c0-0.9-0.7-1.7-2-2.5c-0.5-0.3-1-0.5-1.5-0.7
		c-0.5-0.2-1-0.5-1.5-0.7c-1.5-0.7-2.5-1.4-3.1-2.2c-0.8-0.9-1.1-2.1-1.1-3.5c0-1.9,0.6-3.5,1.9-4.7c1.3-1.2,2.9-1.9,4.8-1.9
		C233.9,39.6,236,41,237.3,43.9z"/>
	<path d="M248.5,59.3c0.4,0.4,0.6,0.8,0.6,1.3c0,0.5-0.2,1-0.6,1.3c-0.4,0.4-0.8,0.6-1.3,0.6c-0.5,0-1-0.2-1.3-0.6s-0.5-0.8-0.5-1.3
		c0-0.5,0.2-1,0.5-1.3s0.8-0.6,1.3-0.6C247.7,58.7,248.2,58.9,248.5,59.3z"/>
	<path d="M261,32.4c0.4,0.4,0.5,0.8,0.5,1.3c0,0.5-0.2,1-0.5,1.3c-0.4,0.4-0.8,0.6-1.3,0.6s-1-0.2-1.3-0.6c-0.4-0.4-0.5-0.8-0.5-1.3
		c0-0.5,0.2-1,0.5-1.3c0.4-0.4,0.8-0.6,1.3-0.6S260.6,32.1,261,32.4z M260.7,62h-2.1V40.8h2.1V62z"/>
	<path d="M281.9,41.2c1.4,0.6,2.6,1.3,3.6,2.3c1,1,1.8,2.2,2.4,3.5s0.8,2.8,0.8,4.4s-0.3,3-0.8,4.4c-0.6,1.3-1.4,2.5-2.4,3.5
		c-1,1-2.2,1.8-3.6,2.3c-1.4,0.6-2.8,0.8-4.3,0.8c-1.5,0-2.9-0.3-4.3-0.9c-1.3-0.6-2.5-1.4-3.5-2.4s-1.8-2.2-2.4-3.5
		c-0.6-1.3-0.8-2.8-0.8-4.2c0-1.5,0.3-2.9,0.8-4.3c0.6-1.4,1.4-2.5,2.4-3.6c1-1,2.2-1.8,3.5-2.4c1.3-0.6,2.8-0.9,4.3-0.9
		C279.1,40.4,280.5,40.6,281.9,41.2z M273.9,43c-1.1,0.5-2,1.2-2.8,2c-0.8,0.9-1.4,1.8-1.9,3c-0.4,1.1-0.7,2.3-0.7,3.5
		s0.2,2.3,0.7,3.4c0.4,1.1,1.1,2.1,1.9,2.9c0.8,0.8,1.7,1.5,2.8,2c1.1,0.5,2.2,0.7,3.5,0.7c1.3,0,2.5-0.2,3.6-0.7
		c1.1-0.5,2.1-1.1,3-1.9c0.9-0.8,1.5-1.8,2-2.9c0.5-1.1,0.7-2.3,0.7-3.6c0-1.3-0.2-2.5-0.7-3.6c-0.5-1.1-1.1-2.1-1.9-2.9
		c-0.8-0.8-1.8-1.5-3-1.9c-1.1-0.5-2.3-0.7-3.6-0.7C276.2,42.3,275,42.5,273.9,43z"/>
</g>
<g>
	<path class="st0" d="M63.1,11.3l-11.6-0.7c-1.1-0.3-2.2,0.5-2.2,1.7v5.2c0,1.1,1.1,2,2.2,1.7l11.6-5C64.4,13.7,64.4,11.7,63.1,11.3
		z"/>
	<path class="st1" d="M63,11.3l-1.5-0.4c-0.1,0-0.2,0.1-0.2,0.1l-10.8,4.8c-0.7,0.2-1.3,0.9-1.3,1.7v0c0,1.1,1.1,2,2.2,1.7l11.6-5
		C64.4,13.7,64.4,11.7,63,11.3z"/>
	<path class="st2" d="M49.2,29.8c-0.5,0-0.8-0.4-0.8-0.8V9.4c0-0.5,0.4-0.8,0.8-0.8c0.5,0,0.8,0.4,0.8,0.8v19.6
		C50.1,29.4,49.7,29.8,49.2,29.8z"/>
	<path class="st3" d="M56.4,27.3h-7.7c-1.4,0-2.6,1.2-2.6,2.6v32.4c0,0.9,0.8,1.7,1.7,1.7h8.5c1.4,0,2.6-1.2,2.6-2.6V29.9
		C58.9,28.5,57.8,27.3,56.4,27.3z"/>
	<path class="st4" d="M44.4,36.5h-8.5c-1.4,0-2.6,1.2-2.6,2.6v23.2c0,0.9,0.8,1.7,1.7,1.7h9.4c0.9,0,1.7-0.8,1.7-1.7v-24
		C46.1,37.3,45.3,36.5,44.4,36.5z"/>
	<path class="st5" d="M33,43.5h-8.5c-1.4,0-2.6,1.2-2.6,2.6v14c0,0.9,0.8,1.7,1.7,1.7H33c0.9,0,1.7-0.8,1.7-1.7V45.2
		C34.7,44.3,33.9,43.5,33,43.5z"/>
	<path class="st6" d="M18.7,54.9h-8.5c-1.4,0-2.6,1.2-2.6,2.6v3.9c0,1.4,1.2,2.6,2.6,2.6h8.5c0.9,0,1.7-0.8,1.7-1.7v-5.7
		C20.4,55.6,19.7,54.9,18.7,54.9z"/>
	<path class="st7" d="M56.4,27.3h-0.6c-0.9,0-1.7,0.8-1.7,1.7v27.4c0,1.4-1.2,2.6-2.6,2.6h-3.6c-0.9,0-1.7,0.8-1.7,1.7v1.5
		c0,0.9,0.8,1.7,1.7,1.7h8.5c1.4,0,2.6-1.2,2.6-2.6V29.9C58.9,28.5,57.8,27.3,56.4,27.3z"/>
	<path class="st3" d="M35,59h9.4c0.9,0,1.7,0.8,1.7,1.7v1.5c0,0.9-0.8,1.7-1.7,1.7H35c-0.9,0-1.7-0.8-1.7-1.7v-1.5
		C33.3,59.8,34,59,35,59z"/>
	<path class="st5" d="M7.6,60.7v0.6c0,1.4,1.2,2.6,2.6,2.6h8.5c0.9,0,1.7-0.8,1.7-1.7v-1.5c0-0.9-0.8-1.7-1.7-1.7H9.3
		C8.4,59,7.6,59.8,7.6,60.7z"/>
	<path class="st4" d="M22.2,59h9.4c0.9,0,1.7,0.8,1.7,1.7v1.5c0,0.9-0.8,1.7-1.7,1.7h-9.4c-0.9,0-1.7-0.8-1.7-1.7v-1.5
		C20.4,59.8,21.2,59,22.2,59z"/>
</g>
</svg>
