<?xml version="1.0" encoding="utf-8"?>
<!-- Generator: Adobe Illustrator 22.1.0, SVG Export Plug-In . SVG Version: 6.00 Build 0)  -->
<svg version="1.1" id="Layer_1" xmlns="http://www.w3.org/2000/svg" xmlns:xlink="http://www.w3.org/1999/xlink" x="0px" y="0px"
	 viewBox="0 0 328.2 76.1" style="enable-background:new 0 0 328.2 76.1;" xml:space="preserve">
<style type="text/css">
	.st0{fill:#F26B57;}
	.st1{fill:#F15751;}
	.st2{fill:#A64D32;}
	.st3{fill:#F8991D;}
	.st4{fill:#FAA61A;}
	.st5{fill:#FCB145;}
	.st6{fill:#FABE67;}
	.st7{fill:#F6871F;}
	.st8{fill:#40403F;}
	.st9{font-family:'Futura-Medium';}
	.st10{font-size:40.4333px;}
	.st11{letter-spacing:1;}
	.st12{fill:#3E3E3E;}
	.st13{font-family:'Futura-Light';}
	.st14{font-size:39.0735px;}
</style>
<g>
	<path class="st0" d="M63.1,11.3l-11.6-0.7c-1.1-0.3-2.2,0.5-2.2,1.7v5.2c0,1.1,1.1,2,2.2,1.7l11.6-5C64.4,13.7,64.4,11.7,63.1,11.3
		z"/>
	<path class="st1" d="M63,11.3l-1.5-0.4c-0.1,0-0.2,0.1-0.2,0.1l-10.8,4.8c-0.7,0.2-1.3,0.9-1.3,1.7v0c0,1.1,1.1,2,2.2,1.7l11.6-5
		C64.4,13.7,64.4,11.7,63,11.3z"/>
	<path class="st2" d="M49.2,29.8c-0.5,0-0.8-0.4-0.8-0.8V9.4c0-0.5,0.4-0.8,0.8-0.8c0.5,0,0.8,0.4,0.8,0.8v19.6
		C50.1,29.4,49.7,29.8,49.2,29.8z"/>
	<path class="st3" d="M56.4,27.3h-7.7c-1.4,0-2.6,1.2-2.6,2.6v32.4c0,0.9,0.8,1.7,1.7,1.7h8.5c1.4,0,2.6-1.2,2.6-2.6V29.9
		C58.9,28.5,57.8,27.3,56.4,27.3z"/>
	<path class="st4" d="M44.4,36.5h-8.5c-1.4,0-2.6,1.2-2.6,2.6v23.2c0,0.9,0.8,1.7,1.7,1.7h9.4c0.9,0,1.7-0.8,1.7-1.7v-24
		C46.1,37.3,45.3,36.5,44.4,36.5z"/>
	<path class="st5" d="M33,43.5h-8.5c-1.4,0-2.6,1.2-2.6,2.6v14c0,0.9,0.8,1.7,1.7,1.7H33c0.9,0,1.7-0.8,1.7-1.7V45.2
		C34.7,44.3,33.9,43.5,33,43.5z"/>
	<path class="st6" d="M18.7,54.9h-8.5c-1.4,0-2.6,1.2-2.6,2.6v3.9c0,1.4,1.2,2.6,2.6,2.6h8.5c0.9,0,1.7-0.8,1.7-1.7v-5.7
		C20.4,55.6,19.7,54.9,18.7,54.9z"/>
	<path class="st7" d="M56.4,27.3h-0.6c-0.9,0-1.7,0.8-1.7,1.7v27.4c0,1.4-1.2,2.6-2.6,2.6h-3.6c-0.9,0-1.7,0.8-1.7,1.7v1.5
		c0,0.9,0.8,1.7,1.7,1.7h8.5c1.4,0,2.6-1.2,2.6-2.6V29.9C58.9,28.5,57.8,27.3,56.4,27.3z"/>
	<path class="st3" d="M35,59h9.4c0.9,0,1.7,0.8,1.7,1.7v1.5c0,0.9-0.8,1.7-1.7,1.7H35c-0.9,0-1.7-0.8-1.7-1.7v-1.5
		C33.3,59.8,34,59,35,59z"/>
	<path class="st5" d="M7.6,60.7v0.6c0,1.4,1.2,2.6,2.6,2.6h8.5c0.9,0,1.7-0.8,1.7-1.7v-1.5c0-0.9-0.8-1.7-1.7-1.7H9.3
		C8.4,59,7.6,59.8,7.6,60.7z"/>
	<path class="st4" d="M22.2,59h9.4c0.9,0,1.7,0.8,1.7,1.7v1.5c0,0.9-0.8,1.7-1.7,1.7h-9.4c-0.9,0-1.7-0.8-1.7-1.7v-1.5
		C20.4,59.8,21.2,59,22.2,59z"/>
</g>
<text transform="matrix(1 0 0 1 73.7003 56.0938)" class="st8 st9 st10 st11">career</text>
<text transform="matrix(0.838 0 0 1 201.8497 56.0947)" class="st12 st13 st14">|</text>
<text transform="matrix(1 0 0 1 216.152 57.0713)" class="st13 st10">pages</text>
</svg>
