<?xml version="1.0" encoding="utf-8"?>
<!-- Generator: Adobe Illustrator 22.1.0, SVG Export Plug-In . SVG Version: 6.00 Build 0)  -->
<svg version="1.1" id="Layer_1" xmlns="http://www.w3.org/2000/svg" xmlns:xlink="http://www.w3.org/1999/xlink" x="0px" y="0px"
	 viewBox="0 0 351.8 76.1" style="enable-background:new 0 0 351.8 76.1;" xml:space="preserve">
<style type="text/css">
	.st0{fill:#F26B57;}
	.st1{fill:#F15751;}
	.st2{fill:#A64D32;}
	.st3{fill:#F8991D;}
	.st4{fill:#FAA61A;}
	.st5{fill:#FCB145;}
	.st6{fill:#FABE67;}
	.st7{fill:#F6871F;}
	.st8{fill:#40403F;}
</style>
<g>
	<path class="st0" d="M63.1,11.3l-11.6-0.7c-1.1-0.3-2.2,0.5-2.2,1.7v5.2c0,1.1,1.1,2,2.2,1.7l11.6-5C64.4,13.7,64.4,11.7,63.1,11.3
		z"/>
	<path class="st1" d="M63,11.3l-1.5-0.4c-0.1,0-0.2,0.1-0.2,0.1l-10.8,4.8c-0.7,0.2-1.3,0.9-1.3,1.7v0c0,1.1,1.1,2,2.2,1.7l11.6-5
		C64.4,13.7,64.4,11.7,63,11.3z"/>
	<path class="st2" d="M49.2,29.8c-0.5,0-0.8-0.4-0.8-0.8V9.4c0-0.5,0.4-0.8,0.8-0.8c0.5,0,0.8,0.4,0.8,0.8v19.6
		C50.1,29.4,49.7,29.8,49.2,29.8z"/>
	<path class="st3" d="M56.4,27.3h-7.7c-1.4,0-2.6,1.2-2.6,2.6v32.4c0,0.9,0.8,1.7,1.7,1.7h8.5c1.4,0,2.6-1.2,2.6-2.6V29.9
		C58.9,28.5,57.8,27.3,56.4,27.3z"/>
	<path class="st4" d="M44.4,36.5h-8.5c-1.4,0-2.6,1.2-2.6,2.6v23.2c0,0.9,0.8,1.7,1.7,1.7h9.4c0.9,0,1.7-0.8,1.7-1.7v-24
		C46.1,37.3,45.3,36.5,44.4,36.5z"/>
	<path class="st5" d="M33,43.5h-8.5c-1.4,0-2.6,1.2-2.6,2.6v14c0,0.9,0.8,1.7,1.7,1.7H33c0.9,0,1.7-0.8,1.7-1.7V45.2
		C34.7,44.3,33.9,43.5,33,43.5z"/>
	<path class="st6" d="M18.7,54.9h-8.5c-1.4,0-2.6,1.2-2.6,2.6v3.9c0,1.4,1.2,2.6,2.6,2.6h8.5c0.9,0,1.7-0.8,1.7-1.7v-5.7
		C20.4,55.6,19.7,54.9,18.7,54.9z"/>
	<path class="st7" d="M56.4,27.3h-0.6c-0.9,0-1.7,0.8-1.7,1.7v27.4c0,1.4-1.2,2.6-2.6,2.6h-3.6c-0.9,0-1.7,0.8-1.7,1.7v1.5
		c0,0.9,0.8,1.7,1.7,1.7h8.5c1.4,0,2.6-1.2,2.6-2.6V29.9C58.9,28.5,57.8,27.3,56.4,27.3z"/>
	<path class="st3" d="M35,59h9.4c0.9,0,1.7,0.8,1.7,1.7v1.5c0,0.9-0.8,1.7-1.7,1.7H35c-0.9,0-1.7-0.8-1.7-1.7v-1.5
		C33.3,59.8,34,59,35,59z"/>
	<path class="st5" d="M7.6,60.7v0.6c0,1.4,1.2,2.6,2.6,2.6h8.5c0.9,0,1.7-0.8,1.7-1.7v-1.5c0-0.9-0.8-1.7-1.7-1.7H9.3
		C8.4,59,7.6,59.8,7.6,60.7z"/>
	<path class="st4" d="M22.2,59h9.4c0.9,0,1.7,0.8,1.7,1.7v1.5c0,0.9-0.8,1.7-1.7,1.7h-9.4c-0.9,0-1.7-0.8-1.7-1.7v-1.5
		C20.4,59.8,21.2,59,22.2,59z"/>
</g>
<g>
	<path class="st8" d="M91.5,43.7v5.9c-1-1.2-1.9-2.1-2.7-2.5C88,46.6,87,46.3,86,46.3c-1.7,0-3.1,0.6-4.2,1.8
		c-1.1,1.2-1.7,2.6-1.7,4.4c0,1.8,0.5,3.3,1.6,4.4c1.1,1.2,2.5,1.7,4.1,1.7c1.1,0,2-0.2,2.8-0.7c0.8-0.4,1.7-1.3,2.8-2.6v5.9
		c-1.8,0.9-3.6,1.4-5.4,1.4c-3,0-5.5-1-7.5-2.9c-2-1.9-3-4.3-3-7.2c0-2.9,1-5.3,3-7.3s4.5-3,7.5-3C88,42.3,89.8,42.8,91.5,43.7z"/>
	<path class="st8" d="M111,42.9h4.5v19.2H111v-2c-1.8,1.7-3.8,2.6-5.9,2.6c-2.7,0-4.9-1-6.6-2.9c-1.7-2-2.6-4.4-2.6-7.3
		c0-2.9,0.9-5.3,2.6-7.2c1.7-1.9,3.9-2.9,6.5-2.9c2.2,0,4.2,0.9,6,2.8V42.9z M100.4,52.4c0,1.8,0.5,3.3,1.5,4.5
		c1,1.2,2.3,1.8,3.8,1.8c1.6,0,3-0.6,4-1.7c1-1.2,1.5-2.7,1.5-4.5s-0.5-3.3-1.5-4.5c-1-1.1-2.3-1.7-3.9-1.7c-1.5,0-2.8,0.6-3.8,1.7
		C100.9,49.2,100.4,50.7,100.4,52.4z"/>
	<path class="st8" d="M122,42.9h4.4v1.7c0.8-0.9,1.5-1.4,2.2-1.8c0.6-0.3,1.4-0.5,2.3-0.5c1.2,0,2.4,0.4,3.7,1.1l-2,4.1
		c-0.8-0.6-1.7-0.9-2.5-0.9c-2.4,0-3.6,1.8-3.6,5.5v10H122V42.9z"/>
	<path class="st8" d="M155.7,53.5h-13.8c0.1,1.6,0.6,2.8,1.5,3.8c0.9,0.9,2.1,1.4,3.5,1.4c1.1,0,2-0.3,2.7-0.8
		c0.7-0.5,1.5-1.5,2.4-2.9l3.8,2.1c-0.6,1-1.2,1.8-1.8,2.5s-1.3,1.3-2.1,1.7c-0.7,0.5-1.5,0.8-2.4,1c-0.9,0.2-1.8,0.3-2.8,0.3
		c-2.9,0-5.2-0.9-6.9-2.8c-1.7-1.9-2.6-4.3-2.6-7.4c0-3,0.8-5.5,2.5-7.4c1.7-1.9,3.9-2.8,6.8-2.8c2.8,0,5.1,0.9,6.7,2.7
		c1.6,1.8,2.4,4.3,2.4,7.4L155.7,53.5z M151.1,49.9c-0.6-2.4-2.1-3.6-4.5-3.6c-0.5,0-1,0.1-1.5,0.2s-0.9,0.4-1.3,0.7
		c-0.4,0.3-0.7,0.7-1,1.1c-0.3,0.4-0.5,0.9-0.6,1.5H151.1z"/>
	<path class="st8" d="M179.1,53.5h-13.8c0.1,1.6,0.6,2.8,1.5,3.8c0.9,0.9,2.1,1.4,3.5,1.4c1.1,0,2-0.3,2.7-0.8
		c0.7-0.5,1.5-1.5,2.4-2.9l3.8,2.1c-0.6,1-1.2,1.8-1.8,2.5s-1.3,1.3-2.1,1.7c-0.7,0.5-1.5,0.8-2.4,1c-0.9,0.2-1.8,0.3-2.8,0.3
		c-2.9,0-5.2-0.9-6.9-2.8c-1.7-1.9-2.6-4.3-2.6-7.4c0-3,0.8-5.5,2.5-7.4c1.7-1.9,3.9-2.8,6.8-2.8c2.8,0,5.1,0.9,6.7,2.7
		c1.6,1.8,2.4,4.3,2.4,7.4L179.1,53.5z M174.5,49.9c-0.6-2.4-2.1-3.6-4.5-3.6c-0.5,0-1,0.1-1.5,0.2s-0.9,0.4-1.3,0.7
		c-0.4,0.3-0.7,0.7-1,1.1c-0.3,0.4-0.5,0.9-0.6,1.5H174.5z"/>
	<path class="st8" d="M184.9,42.9h4.4v1.7c0.8-0.9,1.5-1.4,2.2-1.8c0.6-0.3,1.4-0.5,2.3-0.5c1.2,0,2.4,0.4,3.7,1.1l-2,4.1
		c-0.8-0.6-1.7-0.9-2.5-0.9c-2.4,0-3.6,1.8-3.6,5.5v10h-4.4V42.9z"/>
</g>
<g>
	<path d="M207.1,47.7L207.1,47.7c0.8-1.2,1.8-2.1,3.1-2.7c1.3-0.7,2.7-1,4.1-1c1.4,0,2.7,0.3,3.8,0.8c1.1,0.5,2.1,1.2,2.9,2.1
		c0.8,0.9,1.4,2,1.8,3.2c0.4,1.2,0.6,2.5,0.6,3.9c0,1.3-0.2,2.6-0.6,3.8c-0.4,1.2-1,2.2-1.8,3.1c-0.8,0.9-1.8,1.6-2.9,2
		c-1.1,0.5-2.4,0.7-3.8,0.7c-1.5,0-2.8-0.3-4.1-1s-2.3-1.5-3.1-2.7h-0.1V74h-1.8V44.4h1.8V47.7z M208.9,48.1c-1.3,1.6-2,3.6-2,6
		c0,2.2,0.7,4,2.1,5.5c1.4,1.4,3.2,2.2,5.4,2.2c1.1,0,2.1-0.2,3-0.6c0.9-0.4,1.7-1,2.3-1.7c0.6-0.7,1.1-1.6,1.5-2.5
		c0.3-1,0.5-1.9,0.5-3c0-1.1-0.2-2.1-0.5-3.1c-0.3-1-0.8-1.9-1.5-2.6c-0.6-0.8-1.4-1.4-2.3-1.8c-0.9-0.4-1.9-0.7-3-0.7
		C212,45.7,210.2,46.5,208.9,48.1z"/>
	<path d="M244.3,63.1h-1.8v-3.4h-0.1c-0.7,1.2-1.7,2.1-3,2.8c-1.3,0.7-2.7,1-4.1,1c-1.4,0-2.6-0.3-3.8-0.8c-1.1-0.5-2.1-1.2-2.9-2.1
		s-1.4-2-1.9-3.2c-0.4-1.2-0.6-2.5-0.6-3.8s0.2-2.6,0.6-3.8c0.4-1.2,1-2.2,1.8-3.1c0.8-0.9,1.8-1.6,2.9-2c1.1-0.5,2.4-0.7,3.8-0.7
		c1.5,0,2.8,0.3,4.1,1c1.3,0.6,2.3,1.5,3.1,2.7h0.1v-3.2h1.8V63.1z M232.2,46.3c-0.9,0.4-1.7,1-2.3,1.8c-0.6,0.8-1.1,1.6-1.5,2.6
		c-0.4,1-0.5,1.9-0.5,2.9c0,1.1,0.2,2.1,0.5,3.1c0.3,1,0.8,1.9,1.5,2.6c0.7,0.8,1.4,1.4,2.3,1.8c0.9,0.4,1.9,0.6,3,0.6
		c2.3,0,4.1-0.8,5.4-2.4c1.3-1.6,2-3.6,2-5.9c0-2.2-0.7-4.1-2.1-5.5c-1.4-1.5-3.2-2.2-5.4-2.2C234.1,45.7,233.1,45.9,232.2,46.3z"/>
	<path d="M267.2,62.2c0,1.8-0.1,3.3-0.3,4.5c-0.2,1.2-0.7,2.3-1.5,3.4c-0.9,1.2-1.9,2-3.2,2.7s-2.7,0.9-4.2,0.9
		c-2.5,0-4.7-0.7-6.4-2.1c-1.7-1.4-2.7-3.4-2.8-5.9h1.8c0.1,1.9,0.9,3.4,2.2,4.6c1.4,1.2,3.1,1.7,5,1.7c1.2,0,2.4-0.2,3.4-0.7
		c1.1-0.5,1.9-1.2,2.5-2.1c0.7-1,1.1-2,1.3-3.2s0.3-2.4,0.3-3.9v-2.3h-0.1c-0.8,1.1-1.9,2-3.2,2.6s-2.7,1-4.1,1
		c-1.3,0-2.5-0.3-3.7-0.8c-1.1-0.5-2.1-1.2-2.9-2.1c-0.8-0.9-1.4-2-1.9-3.2c-0.4-1.2-0.6-2.4-0.6-3.7c0-1.3,0.2-2.6,0.7-3.8
		c0.5-1.2,1.1-2.2,1.9-3.1c0.8-0.9,1.8-1.6,3-2.1c1.1-0.5,2.4-0.7,3.7-0.7c2.9,0,5.2,1.2,7,3.6h0.1v-3.2h1.8V62.2z M255.2,46.3
		c-0.9,0.4-1.7,1-2.3,1.8c-0.6,0.8-1.1,1.6-1.5,2.6c-0.4,1-0.5,1.9-0.5,2.9c0,1.1,0.2,2.1,0.5,3.1c0.3,1,0.8,1.9,1.5,2.6
		s1.4,1.4,2.3,1.8c0.9,0.4,1.9,0.6,3,0.6c2.3,0,4.1-0.8,5.4-2.4c1.3-1.6,2-3.6,2-5.9c0-2.2-0.7-4.1-2.1-5.5
		c-1.4-1.5-3.2-2.2-5.4-2.2C257,45.7,256,45.9,255.2,46.3z"/>
	<path d="M273.5,53.9c0,2.4,0.7,4.3,2.1,5.7c1.4,1.4,3.2,2.2,5.4,2.2c1.4,0,2.7-0.4,3.8-1.2s2-1.8,2.8-3.1l1.5,0.9
		c-0.8,1.6-2,2.9-3.4,3.7c-1.5,0.9-3.1,1.3-4.9,1.3c-1.3,0-2.6-0.3-3.7-0.8c-1.1-0.5-2.1-1.2-2.9-2.1c-0.8-0.9-1.4-1.9-1.8-3.1
		c-0.4-1.2-0.6-2.4-0.6-3.8c0-1.3,0.2-2.6,0.6-3.7c0.4-1.2,1.1-2.2,1.9-3.1s1.8-1.6,2.9-2.1c1.1-0.5,2.3-0.8,3.7-0.8
		c1.4,0,2.6,0.3,3.7,0.8c1.1,0.5,2.1,1.2,2.9,2.1c0.8,0.9,1.4,2,1.8,3.2s0.6,2.5,0.6,3.8H273.5z M287.9,52.2
		c-0.1-0.9-0.4-1.7-0.7-2.5c-0.4-0.8-0.9-1.5-1.5-2.1c-0.6-0.6-1.4-1.1-2.2-1.4c-0.8-0.3-1.7-0.5-2.6-0.5c-0.9,0-1.8,0.2-2.7,0.5
		c-0.8,0.3-1.6,0.8-2.3,1.4s-1.2,1.3-1.6,2.1c-0.4,0.8-0.6,1.6-0.7,2.5H287.9z"/>
	<path d="M301.9,47.8c-0.3-0.6-0.7-1.2-1.3-1.5c-0.6-0.4-1.2-0.6-2-0.6c-0.8,0-1.5,0.3-2.2,0.9s-1,1.3-1,2c0,0.9,0.3,1.6,1,2
		c0.6,0.5,1.6,0.9,2.9,1.4c0.8,0.3,1.5,0.6,2.1,0.8s1.1,0.6,1.6,1c0.5,0.4,0.9,0.9,1.2,1.5c0.3,0.6,0.4,1.4,0.4,2.3
		c0,1.7-0.6,3.1-1.7,4.2s-2.6,1.6-4.3,1.6c-1.6,0-2.9-0.4-4.1-1.3s-1.9-2.1-2.3-3.6l1.8-0.6c0.4,1.2,1,2.1,1.7,2.8
		c0.8,0.7,1.7,1,2.9,1c1.2,0,2.2-0.4,3-1.2s1.2-1.8,1.2-3c0-1-0.3-1.8-0.9-2.3c-0.6-0.5-1.5-1-2.7-1.4c-0.9-0.3-1.6-0.6-2.2-0.9
		c-0.6-0.3-1.1-0.6-1.6-1c-0.5-0.4-0.9-0.8-1.2-1.4c-0.3-0.6-0.5-1.2-0.5-2c0-1.4,0.5-2.5,1.5-3.4c1-0.9,2.2-1.3,3.6-1.3
		c0.9,0,1.9,0.3,2.8,0.8c0.9,0.6,1.6,1.3,2,2.1L301.9,47.8z"/>
</g>
</svg>
