<?xml version="1.0" encoding="utf-8"?>
<!-- Generator: Adobe Illustrator 22.1.0, SVG Export Plug-In . SVG Version: 6.00 Build 0)  -->
<svg version="1.1" id="Layer_1" xmlns="http://www.w3.org/2000/svg" xmlns:xlink="http://www.w3.org/1999/xlink" x="0px" y="0px"
	 viewBox="0 0 287.9 58.7" style="enable-background:new 0 0 287.9 58.7;" xml:space="preserve">
<style type="text/css">
	.st0{fill:#F26B57;}
	.st1{fill:#F15751;}
	.st2{fill:#A64D32;}
	.st3{fill:#F8991D;}
	.st4{fill:#FAA61A;}
	.st5{fill:#FCB145;}
	.st6{fill:#FABE67;}
	.st7{fill:#F6871F;}
	.st8{fill:#40403F;}
	.st9{fill:none;stroke:#000000;stroke-miterlimit:10;}
</style>
<g>
	<path class="st8" d="M26.8,20.6v5.9c-1-1.2-1.9-2.1-2.7-2.5c-0.8-0.5-1.7-0.7-2.8-0.7c-1.7,0-3.1,0.6-4.2,1.8
		c-1.1,1.2-1.7,2.6-1.7,4.4c0,1.8,0.5,3.3,1.6,4.4c1.1,1.2,2.5,1.7,4.1,1.7c1.1,0,2-0.2,2.8-0.7c0.8-0.4,1.7-1.3,2.8-2.6v5.9
		c-1.8,0.9-3.6,1.4-5.4,1.4c-3,0-5.5-1-7.5-2.9c-2-1.9-3-4.3-3-7.2c0-2.9,1-5.3,3-7.3s4.5-3,7.5-3C23.4,19.2,25.2,19.6,26.8,20.6z"
		/>
	<path class="st8" d="M46.3,19.7h4.5V39h-4.5v-2c-1.8,1.7-3.8,2.6-5.9,2.6c-2.7,0-4.9-1-6.6-2.9c-1.7-2-2.6-4.4-2.6-7.3
		c0-2.9,0.9-5.3,2.6-7.2c1.7-1.9,3.9-2.9,6.5-2.9c2.2,0,4.2,0.9,6,2.8V19.7z M35.8,29.3c0,1.8,0.5,3.3,1.5,4.5
		c1,1.2,2.3,1.8,3.8,1.8c1.6,0,3-0.6,4-1.7c1-1.2,1.5-2.7,1.5-4.5s-0.5-3.3-1.5-4.5c-1-1.1-2.3-1.7-3.9-1.7c-1.5,0-2.8,0.6-3.8,1.7
		C36.3,26.1,35.8,27.6,35.8,29.3z"/>
	<path class="st8" d="M57.4,19.7h4.4v1.7c0.8-0.9,1.5-1.4,2.2-1.8c0.6-0.3,1.4-0.5,2.3-0.5c1.2,0,2.4,0.4,3.7,1.1l-2,4.1
		c-0.8-0.6-1.7-0.9-2.5-0.9c-2.4,0-3.6,1.8-3.6,5.5v10h-4.4V19.7z"/>
	<path class="st8" d="M91.1,30.4H77.3c0.1,1.6,0.6,2.8,1.5,3.8c0.9,0.9,2.1,1.4,3.5,1.4c1.1,0,2-0.3,2.7-0.8
		c0.7-0.5,1.5-1.5,2.4-2.9l3.8,2.1c-0.6,1-1.2,1.8-1.8,2.5s-1.3,1.3-2.1,1.7c-0.7,0.5-1.5,0.8-2.4,1c-0.9,0.2-1.8,0.3-2.8,0.3
		c-2.9,0-5.2-0.9-6.9-2.8c-1.7-1.9-2.6-4.3-2.6-7.4c0-3,0.8-5.5,2.5-7.4c1.7-1.9,3.9-2.8,6.8-2.8c2.8,0,5.1,0.9,6.7,2.7
		c1.6,1.8,2.4,4.3,2.4,7.4L91.1,30.4z M86.5,26.8c-0.6-2.4-2.1-3.6-4.5-3.6c-0.5,0-1,0.1-1.5,0.2s-0.9,0.4-1.3,0.7
		c-0.4,0.3-0.7,0.7-1,1.1c-0.3,0.4-0.5,0.9-0.6,1.5H86.5z"/>
	<path class="st8" d="M114.4,30.4h-13.8c0.1,1.6,0.6,2.8,1.5,3.8c0.9,0.9,2.1,1.4,3.5,1.4c1.1,0,2-0.3,2.7-0.8
		c0.7-0.5,1.5-1.5,2.4-2.9l3.8,2.1c-0.6,1-1.2,1.8-1.8,2.5s-1.3,1.3-2.1,1.7c-0.7,0.5-1.5,0.8-2.4,1c-0.9,0.2-1.8,0.3-2.8,0.3
		c-2.9,0-5.2-0.9-6.9-2.8c-1.7-1.9-2.6-4.3-2.6-7.4c0-3,0.8-5.5,2.5-7.4c1.7-1.9,3.9-2.8,6.8-2.8c2.8,0,5.1,0.9,6.7,2.7
		c1.6,1.8,2.4,4.3,2.4,7.4L114.4,30.4z M109.9,26.8c-0.6-2.4-2.1-3.6-4.5-3.6c-0.5,0-1,0.1-1.5,0.2s-0.9,0.4-1.3,0.7
		c-0.4,0.3-0.7,0.7-1,1.1c-0.3,0.4-0.5,0.9-0.6,1.5H109.9z"/>
	<path class="st8" d="M120.3,19.7h4.4v1.7c0.8-0.9,1.5-1.4,2.2-1.8c0.6-0.3,1.4-0.5,2.3-0.5c1.2,0,2.4,0.4,3.7,1.1l-2,4.1
		c-0.8-0.6-1.7-0.9-2.5-0.9c-2.4,0-3.6,1.8-3.6,5.5v10h-4.4V19.7z"/>
</g>
<g>
	<path d="M172.7,22.7L172.7,22.7c0.8-1.2,1.8-2.1,3.1-2.7c1.3-0.7,2.7-1,4.1-1c1.4,0,2.7,0.3,3.8,0.8c1.1,0.5,2.1,1.2,2.9,2.1
		c0.8,0.9,1.4,2,1.8,3.2c0.4,1.2,0.6,2.5,0.6,3.9c0,1.3-0.2,2.6-0.6,3.8c-0.4,1.2-1,2.2-1.8,3.1c-0.8,0.9-1.8,1.6-2.9,2
		c-1.1,0.5-2.4,0.7-3.8,0.7c-1.5,0-2.8-0.3-4.1-1s-2.3-1.5-3.1-2.7h-0.1v14.2h-1.8V19.3h1.8V22.7z M174.6,23.1c-1.3,1.6-2,3.6-2,6
		c0,2.2,0.7,4,2.1,5.5c1.4,1.4,3.2,2.2,5.4,2.2c1.1,0,2.1-0.2,3-0.6c0.9-0.4,1.7-1,2.3-1.7c0.6-0.7,1.1-1.6,1.5-2.5
		c0.3-1,0.5-1.9,0.5-3c0-1.1-0.2-2.1-0.5-3.1c-0.3-1-0.8-1.9-1.5-2.6c-0.6-0.8-1.4-1.4-2.3-1.8c-0.9-0.4-1.9-0.7-3-0.7
		C177.7,20.6,175.9,21.5,174.6,23.1z"/>
	<path d="M210,38h-1.8v-3.4h-0.1c-0.7,1.2-1.7,2.1-3,2.8c-1.3,0.7-2.7,1-4.1,1c-1.4,0-2.6-0.3-3.8-0.8c-1.1-0.5-2.1-1.2-2.9-2.1
		s-1.4-2-1.9-3.2c-0.4-1.2-0.6-2.5-0.6-3.8s0.2-2.6,0.6-3.8c0.4-1.2,1-2.2,1.8-3.1c0.8-0.9,1.8-1.6,2.9-2c1.1-0.5,2.4-0.7,3.8-0.7
		c1.5,0,2.8,0.3,4.1,1c1.3,0.6,2.3,1.5,3.1,2.7h0.1v-3.2h1.8V38z M197.9,21.3c-0.9,0.4-1.7,1-2.3,1.8c-0.6,0.8-1.1,1.6-1.5,2.6
		c-0.4,1-0.5,1.9-0.5,2.9c0,1.1,0.2,2.1,0.5,3.1c0.3,1,0.8,1.9,1.5,2.6c0.7,0.8,1.4,1.4,2.3,1.8c0.9,0.4,1.9,0.6,3,0.6
		c2.3,0,4.1-0.8,5.4-2.4c1.3-1.6,2-3.6,2-5.9c0-2.2-0.7-4.1-2.1-5.5c-1.4-1.5-3.2-2.2-5.4-2.2C199.8,20.6,198.8,20.9,197.9,21.3z"/>
	<path d="M232.9,37.1c0,1.8-0.1,3.3-0.3,4.5c-0.2,1.2-0.7,2.3-1.5,3.4c-0.9,1.2-1.9,2-3.2,2.7s-2.7,0.9-4.2,0.9
		c-2.5,0-4.7-0.7-6.4-2.1c-1.7-1.4-2.7-3.4-2.8-5.9h1.8c0.1,1.9,0.9,3.4,2.2,4.6c1.4,1.2,3.1,1.7,5,1.7c1.2,0,2.4-0.2,3.4-0.7
		c1.1-0.5,1.9-1.2,2.5-2.1c0.7-1,1.1-2,1.3-3.2s0.3-2.4,0.3-3.9v-2.3H231c-0.8,1.1-1.9,2-3.2,2.6s-2.7,1-4.1,1
		c-1.3,0-2.5-0.3-3.7-0.8c-1.1-0.5-2.1-1.2-2.9-2.1c-0.8-0.9-1.4-2-1.9-3.2c-0.4-1.2-0.6-2.4-0.6-3.7c0-1.3,0.2-2.6,0.7-3.8
		c0.5-1.2,1.1-2.2,1.9-3.1c0.8-0.9,1.8-1.6,3-2.1c1.1-0.5,2.4-0.7,3.7-0.7c2.9,0,5.2,1.2,7,3.6h0.1v-3.2h1.8V37.1z M220.8,21.3
		c-0.9,0.4-1.7,1-2.3,1.8c-0.6,0.8-1.1,1.6-1.5,2.6c-0.4,1-0.5,1.9-0.5,2.9c0,1.1,0.2,2.1,0.5,3.1c0.3,1,0.8,1.9,1.5,2.6
		s1.4,1.4,2.3,1.8c0.9,0.4,1.9,0.6,3,0.6c2.3,0,4.1-0.8,5.4-2.4c1.3-1.6,2-3.6,2-5.9c0-2.2-0.7-4.1-2.1-5.5
		c-1.4-1.5-3.2-2.2-5.4-2.2C222.7,20.6,221.7,20.9,220.8,21.3z"/>
	<path d="M239.1,28.8c0,2.4,0.7,4.3,2.1,5.7c1.4,1.4,3.2,2.2,5.4,2.2c1.4,0,2.7-0.4,3.8-1.2s2-1.8,2.8-3.1l1.5,0.9
		c-0.8,1.6-2,2.9-3.4,3.7c-1.5,0.9-3.1,1.3-4.9,1.3c-1.3,0-2.6-0.3-3.7-0.8c-1.1-0.5-2.1-1.2-2.9-2.1c-0.8-0.9-1.4-1.9-1.8-3.1
		c-0.4-1.2-0.6-2.4-0.6-3.8c0-1.3,0.2-2.6,0.6-3.7c0.4-1.2,1.1-2.2,1.9-3.1s1.8-1.6,2.9-2.1c1.1-0.5,2.3-0.8,3.7-0.8
		c1.4,0,2.6,0.3,3.7,0.8c1.1,0.5,2.1,1.2,2.9,2.1c0.8,0.9,1.4,2,1.8,3.2s0.6,2.5,0.6,3.8H239.1z M253.5,27.1
		c-0.1-0.9-0.4-1.7-0.7-2.5c-0.4-0.8-0.9-1.5-1.5-2.1c-0.6-0.6-1.4-1.1-2.2-1.4c-0.8-0.3-1.7-0.5-2.6-0.5c-0.9,0-1.8,0.2-2.7,0.5
		c-0.8,0.3-1.6,0.8-2.3,1.4s-1.2,1.3-1.6,2.1c-0.4,0.8-0.6,1.6-0.7,2.5H253.5z"/>
	<path d="M267.6,22.7c-0.3-0.6-0.7-1.2-1.3-1.5c-0.6-0.4-1.2-0.6-2-0.6c-0.8,0-1.5,0.3-2.2,0.9s-1,1.3-1,2c0,0.9,0.3,1.6,1,2
		c0.6,0.5,1.6,0.9,2.9,1.4c0.8,0.3,1.5,0.6,2.1,0.8s1.1,0.6,1.6,1c0.5,0.4,0.9,0.9,1.2,1.5c0.3,0.6,0.4,1.4,0.4,2.3
		c0,1.7-0.6,3.1-1.7,4.2s-2.6,1.6-4.3,1.6c-1.6,0-2.9-0.4-4.1-1.3s-1.9-2.1-2.3-3.6l1.8-0.6c0.4,1.2,1,2.1,1.7,2.8
		c0.8,0.7,1.7,1,2.9,1c1.2,0,2.2-0.4,3-1.2s1.2-1.8,1.2-3c0-1-0.3-1.8-0.9-2.3c-0.6-0.5-1.5-1-2.7-1.4c-0.9-0.3-1.6-0.6-2.2-0.9
		c-0.6-0.3-1.1-0.6-1.6-1c-0.5-0.4-0.9-0.8-1.2-1.4c-0.3-0.6-0.5-1.2-0.5-2c0-1.4,0.5-2.5,1.5-3.4c1-0.9,2.2-1.3,3.6-1.3
		c0.9,0,1.9,0.3,2.8,0.8c0.9,0.6,1.6,1.3,2,2.1L267.6,22.7z"/>
</g>
<line class="st9" x1="151.1" y1="9.7" x2="151.1" y2="49"/>
</svg>
